<?xml version="1.0" standalone="no"?><!DOCTYPE svg PUBLIC "-//W3C//DTD SVG 1.1//EN" "http://www.w3.org/Graphics/SVG/1.1/DTD/svg11.dtd"><svg class="icon" height="512" viewBox="0 0 1024 1024" version="1.1" xmlns="http://www.w3.org/2000/svg"><path style="fill: white;" d="M510.46912 63.82592c-246.28736 0-446.66368 200.35584-446.66368 446.6432 0 246.29248 200.37632 446.64832 446.66368 446.64832a28.09856 28.09856 0 1 0 0-56.19712c-215.30112 0-390.46656-175.15008-390.46656-390.4512s175.16544-390.4512 390.46656-390.4512 390.46656 175.15008 390.46656 390.4512a28.09856 28.09856 0 1 0 56.19712 0c0-246.28736-200.37632-446.6432-446.66368-446.6432z" fill="" /><path d="M510.46912 156.84096a28.09856 28.09856 0 0 0-28.09856 28.09856v325.5296l0.00512 0.128c0.00512 0.88064 0.04608 1.76128 0.13312 2.6368 0.04096 0.4352 0.12288 0.86016 0.18432 1.29536 0.07168 0.47616 0.12288 0.95232 0.21504 1.42336 0.09728 0.49152 0.2304 0.96768 0.35328 1.45408 0.1024 0.40448 0.18944 0.80896 0.31232 1.20832 0.14848 0.48128 0.32768 0.9472 0.49664 1.42336 0.14336 0.38912 0.27136 0.78336 0.43008 1.16736 0.18944 0.45568 0.4096 0.89088 0.61952 1.33632 0.18432 0.384 0.35328 0.77312 0.55296 1.152 0.24064 0.45056 0.512 0.87552 0.77824 1.31072 0.20992 0.34816 0.40448 0.70144 0.63488 1.03936 0.35328 0.52736 0.7424 1.02912 1.1264 1.53088 0.16896 0.22016 0.32256 0.45568 0.50176 0.67072 1.18784 1.44896 2.51904 2.78016 3.968 3.968 0.2304 0.18944 0.47104 0.34816 0.70656 0.52736 0.49152 0.37888 0.97792 0.75776 1.49504 1.1008 0.34816 0.2304 0.70656 0.43008 1.06496 0.64512 0.43008 0.26112 0.84992 0.52736 1.29024 0.76288 0.384 0.2048 0.77312 0.37376 1.16224 0.5632 0.44032 0.20992 0.8704 0.43008 1.32608 0.6144 0.38912 0.15872 0.78848 0.29184 1.18272 0.4352 0.46592 0.16896 0.92672 0.34816 1.408 0.49152 0.40448 0.12288 0.8192 0.20992 1.2288 0.31744 0.47616 0.12288 0.9472 0.256 1.4336 0.35328 0.48128 0.09728 0.96768 0.1536 1.45408 0.22016 0.41984 0.06144 0.83456 0.13824 1.26464 0.18432a27.87328 27.87328 0 0 0 5.53984 0c0.42496-0.04096 0.83968-0.12288 1.26464-0.18432 0.4864-0.07168 0.9728-0.128 1.45408-0.22016 0.4864-0.09728 0.95744-0.2304 1.4336-0.35328 0.4096-0.1024 0.8192-0.19456 1.2288-0.31744 0.47616-0.14336 0.93696-0.32256 1.408-0.49152 0.39424-0.14336 0.7936-0.27136 1.18272-0.4352 0.45056-0.18432 0.88064-0.40448 1.31584-0.60928 0.39424-0.18432 0.78848-0.3584 1.17248-0.5632 0.4352-0.2304 0.84992-0.49664 1.26976-0.74752 0.36352-0.22016 0.73216-0.42496 1.08544-0.66048 0.49152-0.32768 0.96256-0.69632 1.4336-1.05472 0.256-0.19456 0.52224-0.37376 0.77312-0.57856a28.7232 28.7232 0 0 0 2.10944-1.90976l185.99936-185.984a28.09344 28.09344 0 1 0-39.7312-39.7312l-138.07104 138.05568V184.93952a28.10368 28.10368 0 0 0-28.09856-28.09856zM928.7936 719.40608l-263.53664-170.5216a28.11904 28.11904 0 0 0-28.69248-1.08032 28.07296 28.07296 0 0 0-14.6688 24.6784v341.0432a28.0832 28.0832 0 0 0 28.09856 28.09856c5.3248 0 10.63424-1.51552 15.26784-4.50048l263.53664-170.5216a28.11392 28.11392 0 0 0-0.00512-47.19616z m-250.70592 142.47936v-237.76256l183.72096 118.88128-183.72096 118.88128z" style="fill: white;" /></svg>